<?xml version="1.0" encoding="UTF-8" standalone="no"?><svg xmlns="http://www.w3.org/2000/svg" xmlns:xlink="http://www.w3.org/1999/xlink" contentScriptType="application/ecmascript" contentStyleType="text/css" height="763px" preserveAspectRatio="none" style="width:806px;height:763px;" version="1.1" viewBox="0 0 806 763" width="806px" zoomAndPan="magnify"><defs><filter height="300%" id="f1xdc9o7bdknmp" width="300%" x="-1" y="-1"><feGaussianBlur result="blurOut" stdDeviation="2.0"/><feColorMatrix in="blurOut" result="blurOut2" type="matrix" values="0 0 0 0 0 0 0 0 0 0 0 0 0 0 0 0 0 0 .4 0"/><feOffset dx="4.0" dy="4.0" in="blurOut2" result="blurOut3"/><feBlend in="SourceGraphic" in2="blurOut3" mode="normal"/></filter></defs><g><!--MD5=[e16517fc89273ae20fa94f4bdafcd843]
cluster Docker Machine--><polygon fill="#FFFFFF" filter="url(#f1xdc9o7bdknmp)" points="52.5,34.5,62.5,24.5,784.5,24.5,784.5,633,774.5,643,52.5,643,52.5,34.5" style="stroke: #000000; stroke-width: 1.5;"/><line style="stroke: #000000; stroke-width: 1.5;" x1="774.5" x2="783.5" y1="34.5" y2="25.5"/><line style="stroke: #000000; stroke-width: 1.5;" x1="52.5" x2="774.5" y1="34.5" y2="34.5"/><line style="stroke: #000000; stroke-width: 1.5;" x1="774.5" x2="774.5" y1="34.5" y2="643"/><text fill="#000000" font-family="sans-serif" font-size="14" font-weight="bold" lengthAdjust="spacingAndGlyphs" textLength="126" x="351.5" y="50.4951">Docker Machine</text><!--MD5=[2463eb4fb2142384a695890292d07225]
cluster db_pkg--><polygon fill="#FFFFFF" filter="url(#f1xdc9o7bdknmp)" points="439.5,72.5,594.5,72.5,601.5,94.7969,760.5,94.7969,760.5,609,439.5,609,439.5,72.5" style="stroke: #000000; stroke-width: 1.5;"/><line style="stroke: #000000; stroke-width: 1.5;" x1="439.5" x2="601.5" y1="94.7969" y2="94.7969"/><text fill="#000000" font-family="sans-serif" font-size="14" font-weight="bold" lengthAdjust="spacingAndGlyphs" textLength="149" x="443.5" y="87.4951">Database Interface</text><!--MD5=[be042ae38ed29669bc92119baaf8c5ec]
cluster Debian //stretch-slim//--><polygon fill="#FFFFFF" filter="url(#f1xdc9o7bdknmp)" points="489.5,125.5,499.5,115.5,736.5,115.5,736.5,575,726.5,585,489.5,585,489.5,125.5" style="stroke: #000000; stroke-width: 1.5;"/><line style="stroke: #000000; stroke-width: 1.5;" x1="726.5" x2="735.5" y1="125.5" y2="116.5"/><line style="stroke: #000000; stroke-width: 1.5;" x1="489.5" x2="726.5" y1="125.5" y2="125.5"/><line style="stroke: #000000; stroke-width: 1.5;" x1="726.5" x2="726.5" y1="125.5" y2="585"/><text fill="#000000" font-family="sans-serif" font-size="14" font-weight="bold" lengthAdjust="spacingAndGlyphs" textLength="54" x="531.5" y="141.4951">Debian</text><text fill="#000000" font-family="sans-serif" font-size="14" font-style="italic" font-weight="bold" lengthAdjust="spacingAndGlyphs" textLength="96" x="590.5" y="141.4951">stretch-slim</text><!--MD5=[4d13330f5be714a1337fad8972562344]
cluster Bussines Logic--><polygon fill="#FFFFFF" filter="url(#f1xdc9o7bdknmp)" points="76.5,440,200.5,440,207.5,462.2969,415.5,462.2969,415.5,619,76.5,619,76.5,440" style="stroke: #000000; stroke-width: 1.5;"/><line style="stroke: #000000; stroke-width: 1.5;" x1="76.5" x2="207.5" y1="462.2969" y2="462.2969"/><text fill="#000000" font-family="sans-serif" font-size="14" font-weight="bold" lengthAdjust="spacingAndGlyphs" textLength="118" x="80.5" y="454.9951">Bussines Logic</text><!--MD5=[36171b6e572b58f5f2cd984972272987]
cluster alpine--><polygon fill="#FFFFFF" filter="url(#f1xdc9o7bdknmp)" points="100.5,493,110.5,483,391.5,483,391.5,585,381.5,595,100.5,595,100.5,493" style="stroke: #000000; stroke-width: 1.5;"/><line style="stroke: #000000; stroke-width: 1.5;" x1="381.5" x2="390.5" y1="493" y2="484"/><line style="stroke: #000000; stroke-width: 1.5;" x1="100.5" x2="381.5" y1="493" y2="493"/><line style="stroke: #000000; stroke-width: 1.5;" x1="381.5" x2="381.5" y1="493" y2="595"/><text fill="#000000" font-family="sans-serif" font-size="14" font-weight="bold" lengthAdjust="spacingAndGlyphs" textLength="96" x="171.5" y="508.9951">Alpine Linux</text><text fill="#000000" font-family="sans-serif" font-size="14" font-style="italic" font-weight="bold" lengthAdjust="spacingAndGlyphs" textLength="40" x="272.5" y="508.9951">edge</text><!--MD5=[8563712c426c3f985f96c22d3e8aca81]
cluster Visual Interface--><polygon fill="#FFFFFF" filter="url(#f1xdc9o7bdknmp)" points="76.5,89,205.5,89,212.5,111.2969,412.5,111.2969,412.5,416,76.5,416,76.5,89" style="stroke: #000000; stroke-width: 1.5;"/><line style="stroke: #000000; stroke-width: 1.5;" x1="76.5" x2="212.5" y1="111.2969" y2="111.2969"/><text fill="#000000" font-family="sans-serif" font-size="14" font-weight="bold" lengthAdjust="spacingAndGlyphs" textLength="123" x="80.5" y="103.9951">Visual Interface</text><!--MD5=[b9cc13d576fad63b41eac53298820cb8]
cluster jessie--><polygon fill="#FFFFFF" filter="url(#f1xdc9o7bdknmp)" points="199.5,142,209.5,132,380.5,132,380.5,214,370.5,224,199.5,224,199.5,142" style="stroke: #000000; stroke-width: 1.5;"/><line style="stroke: #000000; stroke-width: 1.5;" x1="370.5" x2="379.5" y1="142" y2="133"/><line style="stroke: #000000; stroke-width: 1.5;" x1="199.5" x2="370.5" y1="142" y2="142"/><line style="stroke: #000000; stroke-width: 1.5;" x1="370.5" x2="370.5" y1="142" y2="224"/><text fill="#000000" font-family="sans-serif" font-size="14" font-weight="bold" lengthAdjust="spacingAndGlyphs" textLength="54" x="233.5" y="157.9951">Debian</text><text fill="#000000" font-family="sans-serif" font-size="14" font-style="italic" font-weight="bold" lengthAdjust="spacingAndGlyphs" textLength="46" x="292.5" y="157.9951">Jessie</text><!--MD5=[02e9eaac5f6541ebcd7fab4fc9de6ad5]
cluster ubuntu--><polygon fill="#FFFFFF" filter="url(#f1xdc9o7bdknmp)" points="108.5,266,118.5,256,380.5,256,380.5,374,370.5,384,108.5,384,108.5,266" style="stroke: #000000; stroke-width: 1.5;"/><line style="stroke: #000000; stroke-width: 1.5;" x1="370.5" x2="379.5" y1="266" y2="257"/><line style="stroke: #000000; stroke-width: 1.5;" x1="108.5" x2="370.5" y1="266" y2="266"/><line style="stroke: #000000; stroke-width: 1.5;" x1="370.5" x2="370.5" y1="266" y2="384"/><text fill="#000000" font-family="sans-serif" font-size="14" font-weight="bold" lengthAdjust="spacingAndGlyphs" textLength="57" x="184.5" y="281.9951">Ubuntu</text><text fill="#000000" font-family="sans-serif" font-size="14" font-style="italic" font-weight="bold" lengthAdjust="spacingAndGlyphs" textLength="50" x="246.5" y="281.9951">Xenial</text><!--MD5=[93eb6bc16348cf86d991ffbae2a36585]
entity 5432--><ellipse cx="464.5" cy="551" fill="#FEFECE" filter="url(#f1xdc9o7bdknmp)" rx="8" ry="8" style="stroke: #A80036; stroke-width: 2.0;"/><text fill="#000000" font-family="sans-serif" font-size="14" lengthAdjust="spacingAndGlyphs" textLength="28" x="446.5" y="580.9951">Port</text><text fill="#000000" font-family="sans-serif" font-size="14" lengthAdjust="spacingAndGlyphs" textLength="36" x="446.5" y="597.292">5432</text><!--MD5=[c84962988b00679c33aff4c7abf2c949]
entity pgxt--><rect fill="#FEFECE" filter="url(#f1xdc9o7bdknmp)" height="68.8906" style="stroke: #A80036; stroke-width: 1.5;" width="96" x="505.5" y="155.5"/><rect fill="#FEFECE" height="5" style="stroke: #A80036; stroke-width: 1.5;" width="10" x="500.5" y="160.5"/><rect fill="#FEFECE" height="5" style="stroke: #A80036; stroke-width: 1.5;" width="10" x="500.5" y="214.3906"/><text fill="#000000" font-family="sans-serif" font-size="14" lengthAdjust="spacingAndGlyphs" textLength="54" x="515.5" y="178.4951">Custom</text><text fill="#000000" font-family="sans-serif" font-size="14" lengthAdjust="spacingAndGlyphs" textLength="62" x="515.5" y="194.792">Postgres</text><text fill="#000000" font-family="sans-serif" font-size="14" lengthAdjust="spacingAndGlyphs" textLength="76" x="515.5" y="211.0889">extensions</text><!--MD5=[4819d7e546ed2c2981b8955b82e72e10]
entity pg--><rect fill="#FEFECE" filter="url(#f1xdc9o7bdknmp)" height="36.2969" style="stroke: #A80036; stroke-width: 1.5;" width="145" x="517" y="533"/><rect fill="#FEFECE" height="5" style="stroke: #A80036; stroke-width: 1.5;" width="10" x="512" y="538"/><rect fill="#FEFECE" height="5" style="stroke: #A80036; stroke-width: 1.5;" width="10" x="512" y="559.2969"/><text fill="#000000" font-family="sans-serif" font-size="14" lengthAdjust="spacingAndGlyphs" textLength="125" x="527" y="555.9951">PostgreSQL - 10.2</text><!--MD5=[e31d56bb91fd77a725c5c700d0d6e4c4]
entity pgis--><rect fill="#FEFECE" filter="url(#f1xdc9o7bdknmp)" height="36.2969" style="stroke: #A80036; stroke-width: 1.5;" width="109" x="543" y="314"/><rect fill="#FEFECE" height="5" style="stroke: #A80036; stroke-width: 1.5;" width="10" x="538" y="319"/><rect fill="#FEFECE" height="5" style="stroke: #A80036; stroke-width: 1.5;" width="10" x="538" y="340.2969"/><text fill="#000000" font-family="sans-serif" font-size="14" lengthAdjust="spacingAndGlyphs" textLength="89" x="553" y="336.9951">PostGIS - 2.4</text><!--MD5=[7468467f3b6b392f1d176d828c753b77]
entity db--><path d="M636.5,169 C636.5,159 678.5,159 678.5,159 C678.5,159 720.5,159 720.5,169 L720.5,210.5938 C720.5,220.5938 678.5,220.5938 678.5,220.5938 C678.5,220.5938 636.5,220.5938 636.5,210.5938 L636.5,169 " fill="#FFFFFF" filter="url(#f1xdc9o7bdknmp)" style="stroke: #000000; stroke-width: 1.5;"/><path d="M636.5,169 C636.5,179 678.5,179 678.5,179 C678.5,179 720.5,179 720.5,169 " fill="none" style="stroke: #000000; stroke-width: 1.5;"/><text fill="#000000" font-family="sans-serif" font-size="14" lengthAdjust="spacingAndGlyphs" textLength="41" x="646.5" y="195.9951">SIOSE</text><text fill="#000000" font-family="sans-serif" font-size="14" lengthAdjust="spacingAndGlyphs" textLength="64" x="646.5" y="212.292">database</text><!--MD5=[750f4922f46feda6f3073f2b13c8cbdb]
entity gdal--><rect fill="#FEFECE" filter="url(#f1xdc9o7bdknmp)" height="36.2969" style="stroke: #A80036; stroke-width: 1.5;" width="143" x="232" y="533"/><rect fill="#FEFECE" height="5" style="stroke: #A80036; stroke-width: 1.5;" width="10" x="227" y="538"/><rect fill="#FEFECE" height="5" style="stroke: #A80036; stroke-width: 1.5;" width="10" x="227" y="559.2969"/><text fill="#000000" font-family="sans-serif" font-size="14" lengthAdjust="spacingAndGlyphs" textLength="123" x="242" y="555.9951">GDAL/OGR - 2.2.3</text><!--MD5=[38ef3da207825949ac30c78e2f64fdaa]
entity wd--><polygon fill="#FEFECE" filter="url(#f1xdc9o7bdknmp)" points="116.5,523,162.5,523,169.5,544,196.5,544,196.5,578.5938,116.5,578.5938,116.5,523" style="stroke: #000000; stroke-width: 1.5;"/><line style="stroke: #000000; stroke-width: 1.5;" x1="116.5" x2="169.5" y1="544" y2="544"/><text fill="#000000" font-family="sans-serif" font-size="14" lengthAdjust="spacingAndGlyphs" textLength="50" x="126.5" y="563.9951">workdir</text><!--MD5=[4fa6161aceae59e24ccfc42a9e133161]
entity pgadmin--><rect fill="#FEFECE" filter="url(#f1xdc9o7bdknmp)" height="36.2969" style="stroke: #A80036; stroke-width: 1.5;" width="90" x="266.5" y="172"/><rect fill="#FEFECE" height="5" style="stroke: #A80036; stroke-width: 1.5;" width="10" x="261.5" y="177"/><rect fill="#FEFECE" height="5" style="stroke: #A80036; stroke-width: 1.5;" width="10" x="261.5" y="198.2969"/><text fill="#000000" font-family="sans-serif" font-size="14" lengthAdjust="spacingAndGlyphs" textLength="70" x="276.5" y="194.9951">PgAdmin4</text><!--MD5=[b5183565dd24eebd71dfeda5f2d582a6]
entity qgis--><rect fill="#FEFECE" filter="url(#f1xdc9o7bdknmp)" height="36.2969" style="stroke: #A80036; stroke-width: 1.5;" width="89" x="267" y="314"/><rect fill="#FEFECE" height="5" style="stroke: #A80036; stroke-width: 1.5;" width="10" x="262" y="319"/><rect fill="#FEFECE" height="5" style="stroke: #A80036; stroke-width: 1.5;" width="10" x="262" y="340.2969"/><text fill="#000000" font-family="sans-serif" font-size="14" lengthAdjust="spacingAndGlyphs" textLength="69" x="277" y="336.9951">QGIS - 3.0</text><!--MD5=[792803811762f973c57f9f61acc6e1f4]
entity wd2--><polygon fill="#FEFECE" filter="url(#f1xdc9o7bdknmp)" points="151.5,304,197.5,304,204.5,325,231.5,325,231.5,359.5938,151.5,359.5938,151.5,304" style="stroke: #000000; stroke-width: 1.5;"/><line style="stroke: #000000; stroke-width: 1.5;" x1="151.5" x2="204.5" y1="325" y2="325"/><text fill="#000000" font-family="sans-serif" font-size="14" lengthAdjust="spacingAndGlyphs" textLength="50" x="161.5" y="344.9951">workdir</text><!--MD5=[61223c5b1950131809d0864397fbb349]
entity 5433--><ellipse cx="464.5" cy="704" fill="#FEFECE" filter="url(#f1xdc9o7bdknmp)" rx="8" ry="8" style="stroke: #A80036; stroke-width: 2.0;"/><text fill="#000000" font-family="sans-serif" font-size="14" lengthAdjust="spacingAndGlyphs" textLength="28" x="446.5" y="733.9951">Port</text><text fill="#000000" font-family="sans-serif" font-size="14" lengthAdjust="spacingAndGlyphs" textLength="36" x="446.5" y="750.292">5433</text><!--MD5=[7ce445002a4afd3ed185193555ff4be8]
entity 5050--><ellipse cx="27.5" cy="190" fill="#FEFECE" filter="url(#f1xdc9o7bdknmp)" rx="8" ry="8" style="stroke: #A80036; stroke-width: 2.0;"/><text fill="#000000" font-family="sans-serif" font-size="14" lengthAdjust="spacingAndGlyphs" textLength="28" x="9.5" y="219.9951">Port</text><text fill="#000000" font-family="sans-serif" font-size="14" lengthAdjust="spacingAndGlyphs" textLength="36" x="9.5" y="236.292">5050</text><!--MD5=[2c003b121c9441e3e3b08897ce1b7cae]
entity x11--><ellipse cx="27.5" cy="332" fill="#FEFECE" filter="url(#f1xdc9o7bdknmp)" rx="8" ry="8" style="stroke: #A80036; stroke-width: 2.0;"/><text fill="#000000" font-family="sans-serif" font-size="14" lengthAdjust="spacingAndGlyphs" textLength="27" x="6" y="361.9951">X11</text><text fill="#000000" font-family="sans-serif" font-size="14" lengthAdjust="spacingAndGlyphs" textLength="43" x="6" y="378.292">server</text><!--MD5=[7c0f197cad09c4d86c8b8989e1030b9e]
entity docker--><ellipse cx="306.5" cy="704" fill="#FEFECE" filter="url(#f1xdc9o7bdknmp)" rx="8" ry="8" style="stroke: #A80036; stroke-width: 2.0;"/><text fill="#000000" font-family="sans-serif" font-size="14" lengthAdjust="spacingAndGlyphs" textLength="50" x="281" y="733.9951">Docker</text><text fill="#000000" font-family="sans-serif" font-size="14" lengthAdjust="spacingAndGlyphs" textLength="51" x="281" y="750.292">System</text><!--MD5=[55ead11f279d43a49df83e73bfcb0783]
entity out--><polygon fill="#FEFECE" filter="url(#f1xdc9o7bdknmp)" points="111.5,676,157.5,676,164.5,697,195.5,697,195.5,731.5938,111.5,731.5938,111.5,676" style="stroke: #000000; stroke-width: 1.5;"/><line style="stroke: #000000; stroke-width: 1.5;" x1="111.5" x2="164.5" y1="697" y2="697"/><text fill="#000000" font-family="sans-serif" font-size="14" lengthAdjust="spacingAndGlyphs" textLength="54" x="121.5" y="716.9951">outputs</text><!--MD5=[8fc3522a43f8c7199df5e09e5bb0188e]
entity user--><ellipse cx="246.5" cy="673" fill="#FEFECE" filter="url(#f1xdc9o7bdknmp)" rx="8" ry="8" style="stroke: #A80036; stroke-width: 1.5;"/><path d="M246.5,681 L246.5,708 M233.5,689 L259.5,689 M246.5,708 L233.5,723 M246.5,708 L259.5,723 " fill="none" filter="url(#f1xdc9o7bdknmp)" style="stroke: #A80036; stroke-width: 1.5;"/><text fill="#000000" font-family="sans-serif" font-size="14" lengthAdjust="spacingAndGlyphs" textLength="31" x="231" y="741.4951">user</text><!--MD5=[b7b28a54bbf95aecf3988ef76cf6f598]
link wd to gdal--><path d="M196.695,551 C208.377,551 220.059,551 231.741,551 " fill="none" id="wd-gdal" style="stroke: #A80036; stroke-width: 1.0;"/><!--MD5=[a20629e88bbc4aa9d3fd987e773cc722]
link qgis to wd2--><path d="M266.987,332 C255.262,332 243.537,332 231.812,332 " fill="none" id="qgis-wd2" style="stroke: #A80036; stroke-width: 1.0;"/><!--MD5=[2759866d782ef32ffad8690e55ced2a6]
link db to pg--><path d="M682.25,221.266 C686.775,266.537 691.304,354.048 669.5,424 C656.083,467.044 623.947,509.784 604.736,532.748 " fill="none" id="db-pg" style="stroke: #A80036; stroke-width: 1.0;"/><path d="M678.3549,419.3535 A10,10 0 0 0 664.8535 415.1451" fill="#FFFFFF" style="stroke: #A80036; stroke-width: 1.5;"/><ellipse cx="669.5" cy="424" fill="#FFFFFF" rx="6" ry="6" style="stroke: #A80036; stroke-width: 1.5;"/><!--MD5=[6fa0636a46aab312d04cf85005d6e313]
link pgis to pg--><path d="M596.872,350.028 C595.38,390.493 591.636,492.065 590.136,532.751 " fill="none" id="pgis-pg" style="stroke: #A80036; stroke-width: 1.0;"/><path d="M600.8338,434.5008 A10,10 0 0 0 586.7012 433.9799" fill="#FFFFFF" style="stroke: #A80036; stroke-width: 1.5;"/><ellipse cx="593.507" cy="441.3066" fill="#FFFFFF" rx="6" ry="6" style="stroke: #A80036; stroke-width: 1.5;"/><!--MD5=[ea7358d4f26aa7c11acb53329285a9e4]
link db to pgis--><path d="M661.123,221.034 C644.761,249.315 620.825,290.686 607.463,313.781 " fill="none" id="db-pgis" style="stroke: #A80036; stroke-width: 1.0;"/><path d="M642.8296,266.7729 A10,10 0 0 0 630.5886 259.6906" fill="#FFFFFF" style="stroke: #A80036; stroke-width: 1.5;"/><ellipse cx="633.168" cy="269.3522" fill="#FFFFFF" rx="6" ry="6" style="stroke: #A80036; stroke-width: 1.5;"/><!--MD5=[981b875e7e910051db471f091371b716]
link pgxt to pgis--><path d="M564.039,224.533 C572.887,252.685 585.165,291.753 592.123,313.892 " fill="none" id="pgxt-pgis" style="stroke: #A80036; stroke-width: 1.0;"/><path d="M583.4155,262.6016 A10,10 0 0 0 569.9239 266.8417" fill="#FFFFFF" style="stroke: #A80036; stroke-width: 1.5;"/><ellipse cx="578.7898" cy="271.4674" fill="#FFFFFF" rx="6" ry="6" style="stroke: #A80036; stroke-width: 1.5;"/><!--MD5=[a332a1e19655524bdfd91c4bd38d3b40]
link db to pgxt--><path d="M636.277,190 C624.798,190 613.319,190 601.84,190 " fill="none" id="db-pgxt" style="stroke: #A80036; stroke-width: 1.0;"/><path d="M626.1296,197.0711 A10,10 0 0 0 626.1296 182.9289" fill="#FFFFFF" style="stroke: #A80036; stroke-width: 1.5;"/><ellipse cx="619.0585" cy="190" fill="#FFFFFF" rx="6" ry="6" style="stroke: #A80036; stroke-width: 1.5;"/><!--MD5=[080f3617920d49733edff7fea8e81809]
link pgxt to pg--><path d="M531.38,224.554 C528.964,229.56 526.883,234.792 525.5,240 C504.51,319.038 506.46,344.47 525.5,424 C535.497,465.756 561.733,509.304 577.335,532.681 " fill="none" id="pgxt-pg" style="stroke: #A80036; stroke-width: 1.0;"/><path d="M530.7304,415.4769 A10,10 0 0 0 516.9769 418.7696" fill="#FFFFFF" style="stroke: #A80036; stroke-width: 1.5;"/><ellipse cx="525.5" cy="424" fill="#FFFFFF" rx="6" ry="6" style="stroke: #A80036; stroke-width: 1.5;"/><!--MD5=[ca9be3879e90c681c6c1e5e3ce6792be]
reverse link 5432 to gdal--><path d="M450.415,551 C425.342,551 400.269,551 375.195,551 " fill="none" id="5432&lt;-gdal" style="stroke: #A80036; stroke-width: 1.0;"/><polygon fill="#A80036" points="455.43,551,446.43,547,450.43,551,446.43,555,455.43,551" style="stroke: #A80036; stroke-width: 1.0;"/><!--MD5=[039b25f7ca5e085677786a50b05d0aaf]
reverse link pg to 5432--><path d="M511.689,551 C499.052,551 486.414,551 473.777,551 " fill="none" id="pg&lt;-5432" style="stroke: #A80036; stroke-width: 1.0;"/><rect fill="#FFFFFF" height="10" style="stroke: #A80036; stroke-width: 1.5;" width="10" x="511.721" y="546"/><!--MD5=[acaadb8740ec4baa7d19eb92202d6f60]
link pgadmin to 5432--><path d="M339.639,208.08 C351.284,216.411 364.019,227.369 372.5,240 C439.859,340.325 458.986,491.103 463.369,536.562 " fill="none" id="pgadmin-&gt;5432" style="stroke: #A80036; stroke-width: 1.0; stroke-dasharray: 7.0,7.0;"/><polygon fill="#A80036" points="463.833,541.574,466.9882,532.2442,463.3731,536.5952,459.0222,532.9801,463.833,541.574" style="stroke: #A80036; stroke-width: 1.0;"/><!--MD5=[91620e0302dcc6e976ef0b2ec79bbc84]
link qgis to 5432--><path d="M326.343,350.01 C342.943,369.334 370.281,402.078 391.5,432 C417.669,468.902 444.728,515.164 457.289,537.194 " fill="none" id="qgis-&gt;5432" style="stroke: #A80036; stroke-width: 1.0; stroke-dasharray: 7.0,7.0;"/><polygon fill="#A80036" points="459.883,541.762,458.9161,531.9607,457.4135,537.4144,451.9599,535.9119,459.883,541.762" style="stroke: #A80036; stroke-width: 1.0;"/><!--MD5=[98aef6aface50e407ffa2e94e9b09942]
link 5432 to 5433--><path d="M464.5,560.118 C464.5,586.337 464.5,668.5658 464.5,694.8414 " fill="none" id="5432-5433" style="stroke: #A80036; stroke-width: 1.0;"/><ellipse cx="464.5" cy="627.4585" fill="#FFFFFF" rx="10" ry="10" style="stroke: #FFFFFF; stroke-width: 1.0;"/><path d="M457.4289,634.5295 A10,10 0 0 0 471.5711 634.5295" fill="#FFFFFF" style="stroke: #A80036; stroke-width: 1.5;"/><path d="M471.5711,620.3874 A10,10 0 0 0 457.4289 620.3874" fill="#FFFFFF" style="stroke: #A80036; stroke-width: 1.5;"/><ellipse cx="464.5" cy="627.4585" fill="#FFFFFF" rx="6" ry="6" style="stroke: #A80036; stroke-width: 1.5;"/><!--MD5=[f135178e406189335d883aa79843ccc3]
link user to docker--><path d="M262.438,704 C272.307,704 282.176,704 292.045,704 " fill="none" id="user-&gt;docker" style="stroke: #A80036; stroke-width: 1.0;"/><polygon fill="#A80036" points="297.206,704,288.206,700,292.206,704,288.206,708,297.206,704" style="stroke: #A80036; stroke-width: 1.0;"/><!--MD5=[bd17ac78aa552a1aad610842b8f9116b]
reverse link out to user--><path d="M200.831,704 C210.756,704 220.681,704 230.606,704 " fill="none" id="out&lt;-user" style="stroke: #A80036; stroke-width: 1.0; stroke-dasharray: 7.0,7.0;"/><polygon fill="#A80036" points="195.641,704,204.641,708,200.641,704,204.641,700,195.641,704" style="stroke: #A80036; stroke-width: 1.0;"/><!--MD5=[13e2af7a1cd9fa26ec5ab43158c17ad6]
reverse link gdal to docker--><path d="M303.942,574.239 C304.62,608.353 305.885,672.0346 306.335,694.7154 " fill="none" id="gdal&lt;-docker" style="stroke: #A80036; stroke-width: 1.0;"/><polygon fill="#A80036" points="303.838,569.028,300.0188,578.1062,303.938,574.027,308.0172,577.9462,303.838,569.028" style="stroke: #A80036; stroke-width: 1.0;"/><!--MD5=[42909f667f564f1e3027bd0cab792f01]
link wd to wd2--><path d="M160.862,522.956 C167.587,481.26 180.413,401.741 187.138,360.044 " fill="none" id="wd-wd2" style="stroke: #A80036; stroke-width: 1.0;"/><!--MD5=[8ad21749c29493f0d09b8ea3c76415e5]
link wd to out--><path d="M155.957,579.345 C155.413,606.711 154.582,648.564 154.039,675.8585 " fill="none" id="wd-out" style="stroke: #A80036; stroke-width: 1.0;"/><ellipse cx="154.9976" cy="627.6286" fill="#FFFFFF" rx="10" ry="10" style="stroke: #FFFFFF; stroke-width: 1.0;"/><path d="M147.7875,634.5578 A10,10 0 0 0 161.9268 634.8387" fill="#FFFFFF" style="stroke: #A80036; stroke-width: 1.5;"/><path d="M162.2078,620.6993 A10,10 0 0 0 148.0684 620.4184" fill="#FFFFFF" style="stroke: #A80036; stroke-width: 1.5;"/><ellipse cx="154.9976" cy="627.6286" fill="#FFFFFF" rx="6" ry="6" style="stroke: #A80036; stroke-width: 1.5;"/><!--MD5=[52985f36ca2beaea738ffec53107dc24]
link 5050 to pgadmin--><path d="M36.6523,190 C111.4425,190 186.233,190 261.023,190 " fill="none" id="5050-&gt;pgadmin" style="stroke: #A80036; stroke-width: 1.0;"/><rect fill="#FFFFFF" height="10" style="stroke: #A80036; stroke-width: 1.5;" width="10" x="261.408" y="185"/><!--MD5=[e56bd2fc25e254049797bbc638271277]
link x11 to ubuntu--><path d="M36.5391,332 C49.7618,332 62.9845,332 76.2072,332 C82.8186,332 89.4299,332 96.0413,332 C99.3469,332 102.6526,332 105.9583,332 C106.7847,332 107.6111,332 108.4375,332 " fill="none" id="x11-&gt;ubuntu" style="stroke: #A80036; stroke-width: 1.0;"/><rect fill="#FFFFFF" height="10" style="stroke: #A80036; stroke-width: 1.5;" width="10" x="103.4375" y="327"/><!--MD5=[b23101694431374cecfe549eaea567fa]
link pgadmin to qgis--><!--MD5=[adaa0ae1372f622172b3acc139f381e4]
link qgis to gdal--><!--MD5=[6aa8233e134d2b18b717252cdea956c6]
@startuml

node "Docker Machine" {

    package "Database Interface" as db_pkg{
        node "Debian //stretch-slim//" {
            database "SIOSE\ndatabase" AS db {
            }
            [Custom\nPostgres\nextensions] as pgxt
            [PostgreSQL - 10.2] as pg
            [PostGIS - 2.4] as pgis

        }
        interface "Port\n5432" as 5432
    }

    package "Bussines Logic"{
    node "Alpine Linux //edge//" as alpine {
        [GDAL/OGR - 2.2.3] as gdal
        folder workdir as wd
    }
    }

    package "Visual Interface"{
        node "Debian //Jessie//" as jessie {
            [PgAdmin4] as pgadmin
        } 
        node "Ubuntu //Xenial//" as ubuntu {
            [QGIS - 3.0] as qgis
            folder workdir as wd2
        } 
    }
}

interface "Port\n5433" as 5433
interface "Port\n5050" as 5050
interface "X11\nserver" as x11
interface "Docker\nSystem" as docker
folder outputs as out
actor user

wd - gdal
qgis - wd2
pg -up(0- db
pg -up(0- pgis
pgis -left(0- db
pgis -up(0- pgxt
pgxt -left(0- db
pg -up(0- pgxt

gdal -left-> 5432
pg #-() 5432
pgadmin .down.> 5432
qgis .down.> 5432
5432 -(0)- 5433

user -> docker
user .left.> out
docker -up-> gdal
wd - wd2
wd -(0)- out
pgadmin #-left-() 5050
ubuntu #-left-() x11

pgadmin -[hidden]- qgis
qgis -[hidden]- gdal
@enduml

PlantUML version 1.2019.13(Tue Dec 10 17:18:29 UTC 2019)
(GPL source distribution)
Java Runtime: Java(TM) SE Runtime Environment
JVM: Java HotSpot(TM) 64-Bit Server VM
Java Version: 1.7.0_25-b15
Operating System: Linux
Default Encoding: UTF-8
Language: en
Country: US
--></g></svg>