<?xml version="1.0" encoding="UTF-8" standalone="no"?><svg xmlns="http://www.w3.org/2000/svg" xmlns:xlink="http://www.w3.org/1999/xlink" contentScriptType="application/ecmascript" contentStyleType="text/css" height="704px" preserveAspectRatio="none" style="width:365px;height:704px;" version="1.1" viewBox="0 0 365 704" width="365px" zoomAndPan="magnify"><defs><filter height="300%" id="f3g0xia7pm0z0" width="300%" x="-1" y="-1"><feGaussianBlur result="blurOut" stdDeviation="2.0"/><feColorMatrix in="blurOut" result="blurOut2" type="matrix" values="0 0 0 0 0 0 0 0 0 0 0 0 0 0 0 0 0 0 .4 0"/><feOffset dx="4.0" dy="4.0" in="blurOut2" result="blurOut3"/><feBlend in="SourceGraphic" in2="blurOut3" mode="normal"/></filter></defs><g><ellipse cx="75.5" cy="48.6982" fill="#000000" filter="url(#f3g0xia7pm0z0)" rx="10" ry="10" style="stroke: none; stroke-width: 1.0;"/><rect fill="#FEFECE" filter="url(#f3g0xia7pm0z0)" height="33.9688" rx="12.5" ry="12.5" style="stroke: #A80036; stroke-width: 1.5;" width="102" x="24.5" y="78.6982"/><text fill="#000000" font-family="sans-serif" font-size="12" lengthAdjust="spacingAndGlyphs" textLength="82" x="34.5" y="99.8369">&gt; docker run</text><rect fill="#FEFECE" filter="url(#f3g0xia7pm0z0)" height="33.9688" rx="12.5" ry="12.5" style="stroke: #A80036; stroke-width: 1.5;" width="111" x="20" y="616.5415"/><text fill="#000000" font-family="sans-serif" font-size="12" lengthAdjust="spacingAndGlyphs" textLength="91" x="30" y="637.6802">Check outputs</text><ellipse cx="75.5" cy="681.5103" fill="#FFFFFF" filter="url(#f3g0xia7pm0z0)" rx="11" ry="11" style="stroke: #000000; stroke-width: 1.0;"/><ellipse cx="75.5" cy="681.5103" fill="#000000" rx="6" ry="6" style="stroke: #7F7F7F; stroke-width: 1.0;"/><rect fill="#FAEBD7" height="679.7651" style="stroke: #FAEBD7; stroke-width: 1.0;" width="213" x="140" y="12.7451"/><rect fill="#FEFECE" filter="url(#f3g0xia7pm0z0)" height="33.9688" rx="12.5" ry="12.5" style="stroke: #A80036; stroke-width: 1.5;" width="117" x="188" y="132.667"/><text fill="#000000" font-family="sans-serif" font-size="12" lengthAdjust="spacingAndGlyphs" textLength="97" x="198" y="153.8057">launch services</text><rect fill="#FEFECE" filter="url(#f3g0xia7pm0z0)" height="33.9688" rx="12.5" ry="12.5" style="stroke: #A80036; stroke-width: 1.5;" width="80" x="206.5" y="186.6357"/><text fill="#000000" font-family="sans-serif" font-size="12" lengthAdjust="spacingAndGlyphs" textLength="60" x="216.5" y="207.7744">load data</text><rect fill="#FEFECE" filter="url(#f3g0xia7pm0z0)" height="33.9688" rx="12.5" ry="12.5" style="stroke: #A80036; stroke-width: 1.5;" width="101" x="196" y="240.6045"/><text fill="#000000" font-family="sans-serif" font-size="12" lengthAdjust="spacingAndGlyphs" textLength="81" x="206" y="261.7432">launch script</text><rect fill="#FEFECE" filter="url(#f3g0xia7pm0z0)" height="33.9688" rx="12.5" ry="12.5" style="stroke: #A80036; stroke-width: 1.5;" width="157" x="168" y="364.6978"/><text fill="#000000" font-family="sans-serif" font-size="12" lengthAdjust="spacingAndGlyphs" textLength="137" x="178" y="385.8364">new spatial SQL query</text><rect fill="#FEFECE" filter="url(#f3g0xia7pm0z0)" height="33.9688" rx="12.5" ry="12.5" style="stroke: #A80036; stroke-width: 1.5;" width="104" x="194.5" y="418.6665"/><text fill="#000000" font-family="sans-serif" font-size="12" lengthAdjust="spacingAndGlyphs" textLength="84" x="204.5" y="439.8052">new GPKG file</text><rect fill="#FEFECE" filter="url(#f3g0xia7pm0z0)" height="33.9688" rx="12.5" ry="12.5" style="stroke: #A80036; stroke-width: 1.5;" width="110" x="191.5" y="472.6353"/><text fill="#000000" font-family="sans-serif" font-size="12" lengthAdjust="spacingAndGlyphs" textLength="90" x="201.5" y="493.7739">add to workdir</text><polygon fill="#FEFECE" filter="url(#f3g0xia7pm0z0)" points="213.5,294.5732,279.5,294.5732,291.5,313.7803,279.5,332.9873,213.5,332.9873,201.5,313.7803,213.5,294.5732" style="stroke: #A80036; stroke-width: 1.5;"/><text fill="#000000" font-family="sans-serif" font-size="11" lengthAdjust="spacingAndGlyphs" textLength="20" x="250.5" y="343.1978">yes</text><text fill="#000000" font-family="sans-serif" font-size="11" lengthAdjust="spacingAndGlyphs" textLength="53" x="217.5" y="304.7837">Are there</text><text fill="#000000" font-family="sans-serif" font-size="11" lengthAdjust="spacingAndGlyphs" textLength="57" x="217.5" y="317.5884">remaining</text><text fill="#000000" font-family="sans-serif" font-size="11" lengthAdjust="spacingAndGlyphs" textLength="58" x="217.5" y="330.3931">grid cells?</text><text fill="#000000" font-family="sans-serif" font-size="11" lengthAdjust="spacingAndGlyphs" textLength="14" x="187.5" y="311.186">no</text><rect fill="#FEFECE" filter="url(#f3g0xia7pm0z0)" height="47.9375" rx="12.5" ry="12.5" style="stroke: #A80036; stroke-width: 1.5;" width="127" x="183" y="548.604"/><text fill="#000000" font-family="sans-serif" font-size="12" lengthAdjust="spacingAndGlyphs" textLength="107" x="193" y="569.7427">docker stop &amp;&amp; \</text><text fill="#000000" font-family="sans-serif" font-size="12" lengthAdjust="spacingAndGlyphs" textLength="63" x="193" y="583.7114">docker rm</text><line style="stroke: #A80036; stroke-width: 1.5;" x1="75.5" x2="75.5" y1="58.6982" y2="78.6982"/><polygon fill="#A80036" points="71.5,68.6982,75.5,78.6982,79.5,68.6982,75.5,72.6982" style="stroke: #A80036; stroke-width: 1.0;"/><line style="stroke: #A80036; stroke-width: 1.5;" x1="75.5" x2="75.5" y1="650.5103" y2="670.5103"/><polygon fill="#A80036" points="71.5,660.5103,75.5,670.5103,79.5,660.5103,75.5,664.5103" style="stroke: #A80036; stroke-width: 1.0;"/><line style="stroke: #A80036; stroke-width: 1.5;" x1="246.5" x2="246.5" y1="166.6357" y2="186.6357"/><polygon fill="#A80036" points="242.5,176.6357,246.5,186.6357,250.5,176.6357,246.5,180.6357" style="stroke: #A80036; stroke-width: 1.0;"/><line style="stroke: #A80036; stroke-width: 1.5;" x1="246.5" x2="246.5" y1="220.6045" y2="240.6045"/><polygon fill="#A80036" points="242.5,230.6045,246.5,240.6045,250.5,230.6045,246.5,234.6045" style="stroke: #A80036; stroke-width: 1.0;"/><line style="stroke: #A80036; stroke-width: 1.5;" x1="246.5" x2="246.5" y1="398.6665" y2="418.6665"/><polygon fill="#A80036" points="242.5,408.6665,246.5,418.6665,250.5,408.6665,246.5,412.6665" style="stroke: #A80036; stroke-width: 1.0;"/><line style="stroke: #A80036; stroke-width: 1.5;" x1="246.5" x2="246.5" y1="452.6353" y2="472.6353"/><polygon fill="#A80036" points="242.5,462.6353,246.5,472.6353,250.5,462.6353,246.5,466.6353" style="stroke: #A80036; stroke-width: 1.0;"/><line style="stroke: #A80036; stroke-width: 1.5;" x1="246.5" x2="246.5" y1="332.9873" y2="364.6978"/><polygon fill="#A80036" points="242.5,354.6978,246.5,364.6978,250.5,354.6978,246.5,358.6978" style="stroke: #A80036; stroke-width: 1.0;"/><line style="stroke: #A80036; stroke-width: 1.5;" x1="246.5" x2="246.5" y1="506.604" y2="516.604"/><line style="stroke: #A80036; stroke-width: 1.5;" x1="246.5" x2="337" y1="516.604" y2="516.604"/><polygon fill="#A80036" points="333,423.645,337,413.645,341,423.645,337,419.645" style="stroke: #A80036; stroke-width: 1.5;"/><line style="stroke: #A80036; stroke-width: 1.5;" x1="337" x2="337" y1="313.7803" y2="516.604"/><line style="stroke: #A80036; stroke-width: 1.5;" x1="337" x2="291.5" y1="313.7803" y2="313.7803"/><polygon fill="#A80036" points="301.5,309.7803,291.5,313.7803,301.5,317.7803,297.5,313.7803" style="stroke: #A80036; stroke-width: 1.0;"/><line style="stroke: #A80036; stroke-width: 1.5;" x1="201.5" x2="156" y1="313.7803" y2="313.7803"/><polygon fill="#A80036" points="152,409.645,156,419.645,160,409.645,156,413.645" style="stroke: #A80036; stroke-width: 1.5;"/><line style="stroke: #A80036; stroke-width: 1.5;" x1="156" x2="156" y1="313.7803" y2="528.604"/><line style="stroke: #A80036; stroke-width: 1.5;" x1="156" x2="246.5" y1="528.604" y2="528.604"/><line style="stroke: #A80036; stroke-width: 1.5;" x1="246.5" x2="246.5" y1="528.604" y2="548.604"/><polygon fill="#A80036" points="242.5,538.604,246.5,548.604,250.5,538.604,246.5,542.604" style="stroke: #A80036; stroke-width: 1.0;"/><line style="stroke: #A80036; stroke-width: 1.5;" x1="246.5" x2="246.5" y1="274.5732" y2="294.5732"/><polygon fill="#A80036" points="242.5,284.5732,246.5,294.5732,250.5,284.5732,246.5,288.5732" style="stroke: #A80036; stroke-width: 1.0;"/><line style="stroke: #A80036; stroke-width: 1.5;" x1="75.5" x2="75.5" y1="112.667" y2="117.667"/><line style="stroke: #A80036; stroke-width: 1.5;" x1="75.5" x2="246.5" y1="117.667" y2="117.667"/><line style="stroke: #A80036; stroke-width: 1.5;" x1="246.5" x2="246.5" y1="117.667" y2="132.667"/><polygon fill="#A80036" points="242.5,122.667,246.5,132.667,250.5,122.667,246.5,126.667" style="stroke: #A80036; stroke-width: 1.0;"/><line style="stroke: #A80036; stroke-width: 1.5;" x1="246.5" x2="246.5" y1="596.5415" y2="601.5415"/><line style="stroke: #A80036; stroke-width: 1.5;" x1="246.5" x2="75.5" y1="601.5415" y2="601.5415"/><line style="stroke: #A80036; stroke-width: 1.5;" x1="75.5" x2="75.5" y1="601.5415" y2="616.5415"/><polygon fill="#A80036" points="71.5,606.5415,75.5,616.5415,79.5,606.5415,75.5,610.5415" style="stroke: #A80036; stroke-width: 1.0;"/><text fill="#000000" font-family="sans-serif" font-size="18" lengthAdjust="spacingAndGlyphs" textLength="41" x="54.5" y="29.4531">User</text><text fill="#000000" font-family="sans-serif" font-size="18" lengthAdjust="spacingAndGlyphs" textLength="142" x="175.5" y="29.4531">Docker Machine</text><line style="stroke: #000000; stroke-width: 2.0;" x1="10" x2="10" y1="12.7451" y2="692.5103"/><line style="stroke: #000000; stroke-width: 2.0;" x1="140" x2="140" y1="12.7451" y2="692.5103"/><line style="stroke: #000000; stroke-width: 2.0;" x1="353" x2="353" y1="12.7451" y2="692.5103"/><!--MD5=[859fdf05029bb3fef2465ef08b8c27b9]
@startuml

|User|
start
:> docker run;

|#AntiqueWhite|Docker Machine|
:launch services;

:load data;

:launch script;

while ( Are there \n remaining \n grid cells? ) is (yes)
	:new spatial SQL query;
	:new GPKG file;
	:add to workdir;
end while (no)

:docker stop && \\\ndocker rm;

|User|
:Check outputs;

stop
@enduml

PlantUML version 1.2019.13(Tue Dec 10 17:18:29 UTC 2019)
(GPL source distribution)
Java Runtime: Java(TM) SE Runtime Environment
JVM: Java HotSpot(TM) 64-Bit Server VM
Java Version: 1.7.0_25-b15
Operating System: Linux
Default Encoding: UTF-8
Language: en
Country: US
--></g></svg>